<?xml version="1.0" standalone="no"?>
<!DOCTYPE svg PUBLIC "-//W3C//DTD SVG 20010904//EN"
 "http://www.w3.org/TR/2001/REC-SVG-20010904/DTD/svg10.dtd">
<svg version="1.0" xmlns="http://www.w3.org/2000/svg"
 width="1024.000000pt" height="1024.000000pt" viewBox="0 0 1024.000000 1024.000000"
 preserveAspectRatio="xMidYMid meet">

<g transform="translate(0.000000,1024.000000) scale(0.100000,-0.100000)"
fill="#000000" stroke="none">
<path d="M2233 10035 c-186 -40 -344 -184 -414 -375 l-24 -65 0 -4470 c0
-3791 2 -4478 14 -4520 41 -147 151 -283 279 -348 147 -73 -105 -68 3067 -65
l2850 3 55 21 c97 37 138 63 209 129 74 70 126 155 157 260 18 58 19 236 21
4493 3 4913 9 4490 -63 4634 -49 98 -164 213 -255 256 -139 66 92 62 -3014 61
-2336 0 -2831 -3 -2882 -14z m2912 -1610 c8 -313 24 -878 35 -1255 31 -1085
40 -1635 41 -2540 1 -465 3 -834 6 -820 2 14 15 101 29 195 173 1143 533 2018
1122 2724 387 464 923 871 1432 1089 122 52 380 145 387 139 2 -2 -47 -23
-108 -47 -274 -104 -616 -311 -890 -536 -628 -516 -1084 -1180 -1434 -2084
-88 -228 -229 -654 -305 -922 -73 -255 -242 -941 -325 -1313 -3 -16 20 20 52
80 337 631 917 1218 1550 1569 119 66 457 217 483 216 3 0 -67 -36 -155 -79
-167 -83 -337 -189 -503 -314 -474 -360 -1068 -989 -1422 -1506 -18 -27 -30
-27 -30 1 0 12 -30 148 -66 302 -376 1610 -696 2458 -1202 3186 -264 380 -657
779 -1010 1027 -252 177 -549 332 -780 408 -29 9 -51 19 -48 22 6 7 256 -79
387 -132 437 -178 840 -454 1219 -834 745 -746 1177 -1683 1374 -2981 14 -91
27 -176 29 -190 2 -14 5 340 6 785 1 991 17 1774 66 3445 8 272 18 641 20 820
7 403 19 563 22 295 2 -99 9 -436 18 -750z m-1919 -3582 c676 -286 1327 -865
1738 -1546 58 -96 139 -257 133 -263 -2 -3 -14 12 -26 32 -29 49 -114 163
-235 313 -294 367 -675 759 -997 1028 -244 202 -504 373 -709 464 -52 23 -97
44 -100 47 -11 10 51 -13 196 -75z m36 -2495 c3 -390 4 -426 22 -461 10 -20
33 -47 50 -60 31 -22 35 -22 434 -25 l402 -3 0 -110 0 -110 -433 3 -433 3 -77
38 c-82 41 -131 89 -169 166 -23 45 -23 51 -26 514 l-3 467 115 0 115 0 3
-422z m2368 312 l0 -110 -457 0 c-304 0 -471 -4 -498 -11 -78 -22 -125 -103
-125 -216 l0 -48 500 0 500 0 3 -107 2 -108 -502 0 -503 0 0 -63 c0 -73 28
-138 73 -171 28 -20 44 -21 520 -26 l492 -5 3 -107 3 -108 -474 0 c-277 0
-496 4 -527 10 -167 32 -279 142 -309 304 -17 90 -14 486 4 570 32 151 141
257 299 291 46 10 179 14 529 14 l467 1 0 -110z m1115 88 c17 -9 40 -30 53
-47 19 -26 582 -1107 582 -1118 0 -1 -58 -3 -128 -3 l-129 0 -69 135 -69 135
-382 0 -382 0 -68 -132 -68 -133 -133 -3 c-74 -1 -132 1 -130 6 16 41 566
1075 585 1100 44 58 116 83 233 78 43 -1 88 -9 105 -18z m-2605 -1708 c0 -219
6 -250 55 -288 39 -31 121 -31 160 0 49 38 55 69 55 288 l0 200 59 0 59 0 1
-157 c1 -275 -22 -361 -112 -417 -96 -59 -246 -44 -320 32 -60 61 -67 96 -67
333 l0 209 55 0 55 0 0 -200z m920 155 l0 -45 -127 0 -128 0 0 -80 0 -80 118
0 117 0 0 -45 0 -45 -117 0 -118 0 3 -130 3 -130 -60 0 -61 0 0 300 0 300 185
0 185 0 0 -45z m485 14 c65 -33 95 -83 95 -160 0 -119 -93 -189 -252 -189
l-68 0 0 -110 0 -110 -55 0 -55 0 0 301 0 301 143 -3 c129 -4 147 -7 192 -30z
m537 -189 c42 -118 91 -252 107 -297 l30 -83 -58 0 -57 0 -24 75 -24 75 -112
0 -112 0 -24 -72 -25 -73 -56 -3 -56 -3 23 63 c13 35 59 160 101 278 43 118
81 225 86 238 8 21 14 23 66 20 l58 -3 77 -215z"/>
<path d="M5022 3780 c0 -14 2 -19 5 -12 2 6 2 18 0 25 -3 6 -5 1 -5 -13z"/>
<path d="M6594 2559 c-5 -8 -66 -122 -135 -254 l-125 -240 139 -3 c76 -1 198
-1 271 0 l132 3 -125 242 c-70 133 -131 247 -137 253 -9 9 -14 8 -20 -1z"/>
<path d="M5320 1050 l0 -102 70 4 c78 4 119 26 131 71 20 74 -28 119 -131 125
l-70 4 0 -102z"/>
<path d="M5903 1007 c-24 -66 -41 -122 -39 -124 2 -2 39 -3 83 -1 l80 3 -41
121 -41 121 -42 -120z"/>
</g>
</svg>
